<?xml version="1.0" standalone="no"?>
<!DOCTYPE svg PUBLIC "-//W3C//DTD SVG 20010904//EN"
 "http://www.w3.org/TR/2001/REC-SVG-20010904/DTD/svg10.dtd">
<svg version="1.0" xmlns="http://www.w3.org/2000/svg"
 width="500.000000pt" height="500.000000pt" viewBox="0 0 500.000000 500.000000"
 preserveAspectRatio="xMidYMid meet">
<metadata>
Created by potrace 1.16, written by Peter Selinger 2001-2019
</metadata>
<g transform="translate(0.000000,500.000000) scale(0.100000,-0.100000)"
fill="#000000" stroke="none">
<path d="M2315 3756 c-188 -32 -322 -130 -342 -249 -9 -55 22 -122 86 -192 53
-56 54 -57 14 -26 -24 18 -43 37 -43 42 0 6 -4 8 -10 4 -5 -3 -17 6 -26 20 -9
14 -23 25 -31 25 -16 0 -46 -66 -70 -152 -16 -57 -16 -58 10 -108 l27 -51 -19
-48 c-9 -26 -36 -75 -59 -109 -56 -82 -57 -101 -7 -127 42 -23 43 -25 31 -68
-6 -18 -4 -32 5 -44 8 -8 12 -26 11 -38 -2 -14 5 -29 18 -38 18 -12 20 -22 16
-73 l-5 -59 11 58 c10 54 9 60 -12 82 -17 18 -20 28 -12 41 7 13 5 21 -10 34
-17 13 -18 19 -7 42 16 36 7 54 -36 72 -66 28 -42 36 113 36 81 0 154 -5 162
-10 12 -8 11 -14 -10 -42 -50 -67 -110 -162 -110 -175 0 -9 16 -13 49 -13 48
0 49 0 56 36 9 52 30 95 104 217 51 83 71 107 87 107 18 0 24 9 34 50 22 91
-18 155 -159 253 -42 30 -82 61 -90 70 -39 48 111 -25 270 -130 46 -30 73 -80
67 -121 -2 -17 -1 -33 4 -34 5 -2 -17 -48 -48 -102 -65 -113 -84 -168 -84
-239 0 -65 28 -122 90 -184 58 -58 206 -167 217 -160 11 7 113 -78 135 -112
10 -14 18 -20 18 -14 0 7 -16 31 -36 53 l-36 39 52 60 c72 83 91 87 106 21 3
-14 9 -34 14 -45 18 -43 70 -221 70 -237 0 -10 5 -18 10 -18 14 0 13 9 -10 75
-11 32 -20 63 -19 69 1 12 49 -122 49 -136 0 -5 -15 -15 -32 -23 -26 -11 -28
-14 -12 -15 12 0 27 7 34 15 17 21 50 1 50 -29 0 -32 -26 -40 -50 -16 -11 11
-28 20 -37 20 -11 0 -6 -8 17 -25 39 -29 53 -31 73 -11 19 19 10 64 -14 77
-11 5 -19 15 -19 22 0 7 -24 86 -54 177 -39 122 -51 170 -44 183 6 12 6 28 0
45 -15 39 -8 89 16 122 12 16 22 36 22 44 0 18 122 126 142 126 30 0 53 28 54
67 1 59 45 170 72 182 27 13 29 44 3 68 -29 28 -68 222 -50 254 14 26 -4 57
-36 61 -32 4 -161 115 -173 150 -10 26 -44 52 -55 42 -10 -10 -81 17 -107 41
-82 74 -259 102 -445 71z m490 -132 c9 -4 21 -18 26 -32 8 -20 1 -41 -37 -118
-26 -52 -50 -94 -54 -94 -8 0 -24 33 -56 119 -30 78 -30 81 0 81 12 0 38 11
57 24 39 28 41 28 64 20z m-417 -44 c27 -6 90 -12 141 -13 l92 -2 38 -100 c24
-61 35 -106 31 -115 -5 -8 -37 -25 -72 -38 -34 -13 -85 -32 -112 -43 -27 -10
-58 -19 -68 -19 -55 0 -231 127 -263 191 -20 39 -19 92 3 112 40 37 117 46
210 27z m590 -90 c57 -54 69 -70 55 -73 -10 -3 -43 -11 -73 -17 -30 -7 -62
-15 -70 -19 -14 -7 -22 -7 -77 -3 -21 2 -22 3 -7 38 27 64 75 144 87 144 7 -1
45 -32 85 -70z m86 -116 c8 -3 18 -22 21 -42 3 -21 12 -59 20 -87 29 -106 29
-103 -12 -114 -49 -14 -162 -14 -201 0 -24 8 -42 29 -77 88 -25 43 -45 83 -45
89 0 13 5 14 154 48 117 26 119 26 140 18z m-352 -83 c32 -12 116 -156 113
-194 -2 -34 -97 -164 -131 -179 -19 -9 -33 -3 -96 43 l-75 53 29 56 c26 50 28
59 17 83 -7 15 -28 37 -46 48 -19 12 -32 23 -30 25 2 2 46 19 98 38 52 19 95
35 96 35 1 1 12 -3 25 -8z m385 -211 c15 -4 22 -9 16 -9 -7 -1 -13 -11 -13
-24 0 -51 -29 -123 -55 -135 -17 -8 -25 -20 -25 -36 0 -30 -116 -136 -149
-136 -13 0 -48 23 -80 51 -53 47 -57 53 -52 84 7 40 109 174 134 175 9 0 24 8
33 19 13 14 31 18 89 19 41 0 87 -3 102 -8z m-484 -174 c20 -15 37 -35 37 -44
0 -25 -98 -132 -121 -132 -10 0 -28 -13 -40 -29 -27 -37 -97 -78 -103 -59 -28
88 -1 192 79 301 l36 47 37 -28 c20 -16 54 -41 75 -56z m145 -136 c76 -67 91
-114 66 -202 -3 -10 -13 -18 -22 -17 -26 1 -227 123 -227 137 0 19 97 132 113
132 7 0 39 -22 70 -50z m-138 -160 c14 -9 55 -33 92 -54 37 -20 70 -41 73 -46
8 -13 -1 -27 -71 -104 l-60 -67 -26 21 c-30 23 -43 26 -32 8 4 -7 -2 -5 -14 6
-12 10 -19 22 -17 26 3 4 -2 13 -10 20 -13 11 -14 49 -6 208 1 16 34 8 71 -18z"/>
</g>
</svg>
